<svg xmlns="http://www.w3.org/2000/svg" xmlns:xlink="http://www.w3.org/1999/xlink" viewBox="0 0 278.73 83.04"><defs><style>.cls-1{mask:url(#mask);filter:url(#luminosity-noclip-4);}.cls-2,.cls-4,.cls-6{mix-blend-mode:multiply;}.cls-2{fill:url(#linear-gradient);}.cls-3{mask:url(#mask-2);filter:url(#luminosity-noclip-5);}.cls-4{fill:url(#linear-gradient-2);}.cls-5{mask:url(#mask-3);filter:url(#luminosity-noclip-6);}.cls-6{fill:url(#linear-gradient-3);}.cls-7{fill:#fff;}.cls-8{fill:#5cb431;}.cls-9{mask:url(#mask-4);}.cls-10{fill:url(#linear-gradient-4);}.cls-11{mask:url(#mask-5);}.cls-12{fill:url(#linear-gradient-5);}.cls-13{mask:url(#mask-6);}.cls-14{fill:url(#linear-gradient-6);}.cls-15{filter:url(#luminosity-noclip-3);}.cls-16{filter:url(#luminosity-noclip-2);}.cls-17{filter:url(#luminosity-noclip);}</style><filter id="luminosity-noclip" x="86.31" y="-8223.21" width="13.36" height="32766" filterUnits="userSpaceOnUse" color-interpolation-filters="sRGB"><feFlood flood-color="#fff" result="bg"/><feBlend in="SourceGraphic" in2="bg"/></filter><mask id="mask" x="86.31" y="-8223.21" width="13.36" height="32766" maskUnits="userSpaceOnUse"><g class="cls-17"/></mask><linearGradient id="linear-gradient" x1="1093.91" y1="2264.6" x2="1102.69" y2="2262.5" gradientTransform="translate(-1006.7 -2192.95)" gradientUnits="userSpaceOnUse"><stop offset="0"/><stop offset="1" stop-color="#fff"/></linearGradient><filter id="luminosity-noclip-2" x="21.3" y="-8223.21" width="14.62" height="32766" filterUnits="userSpaceOnUse" color-interpolation-filters="sRGB"><feFlood flood-color="#fff" result="bg"/><feBlend in="SourceGraphic" in2="bg"/></filter><mask id="mask-2" x="21.3" y="-8223.21" width="14.62" height="32766" maskUnits="userSpaceOnUse"><g class="cls-16"/></mask><linearGradient id="linear-gradient-2" x1="1030.3" y1="2246.31" x2="1040.29" y2="2246.31" gradientTransform="translate(-1006.7 -2192.95)" gradientUnits="userSpaceOnUse"><stop offset="0"/><stop offset="0.1" stop-color="#060606"/><stop offset="0.22" stop-color="#161616"/><stop offset="0.36" stop-color="#313131"/><stop offset="0.51" stop-color="#575757"/><stop offset="0.68" stop-color="#888"/><stop offset="0.84" stop-color="#c2c2c2"/><stop offset="1" stop-color="#fff"/></linearGradient><filter id="luminosity-noclip-3" x="159.98" y="-8223.21" width="1.14" height="32766" filterUnits="userSpaceOnUse" color-interpolation-filters="sRGB"><feFlood flood-color="#fff" result="bg"/><feBlend in="SourceGraphic" in2="bg"/></filter><mask id="mask-3" x="159.98" y="-8223.21" width="1.14" height="32766" maskUnits="userSpaceOnUse"><g class="cls-15"/></mask><linearGradient id="linear-gradient-3" x1="1167.25" y1="2193.41" x2="1167.25" y2="2206.38" gradientTransform="translate(-1006.7 -2192.95)" gradientUnits="userSpaceOnUse"><stop offset="0"/><stop offset="0.08" stop-color="#090909"/><stop offset="0.22" stop-color="#212121"/><stop offset="0.4" stop-color="#494949"/><stop offset="0.6" stop-color="gray"/><stop offset="0.83" stop-color="#c6c6c6"/><stop offset="1" stop-color="#fff"/></linearGradient><filter id="luminosity-noclip-4" x="86.31" y="67.48" width="13.36" height="4.88" filterUnits="userSpaceOnUse" color-interpolation-filters="sRGB"><feFlood flood-color="#fff" result="bg"/><feBlend in="SourceGraphic" in2="bg"/></filter><mask id="mask-4" x="86.31" y="67.48" width="13.36" height="4.88" maskUnits="userSpaceOnUse"><g class="cls-1"><path class="cls-2" d="M86.35,71.22h0v1.15h0a25.58,25.58,0,0,0,13.31-3.7l-.25-1.19A24.47,24.47,0,0,1,86.35,71.22Z"/></g></mask><linearGradient id="linear-gradient-4" x1="1093.91" y1="2264.6" x2="1102.69" y2="2262.5" gradientTransform="translate(-1006.7 -2192.95)" gradientUnits="userSpaceOnUse"><stop offset="0" stop-color="#53b233"/><stop offset="1" stop-color="#53b233"/></linearGradient><filter id="luminosity-noclip-5" x="21.3" y="52.78" width="14.62" height="1.15" filterUnits="userSpaceOnUse" color-interpolation-filters="sRGB"><feFlood flood-color="#fff" result="bg"/><feBlend in="SourceGraphic" in2="bg"/></filter><mask id="mask-5" x="21.3" y="52.78" width="14.62" height="1.15" maskUnits="userSpaceOnUse"><g class="cls-3"><rect class="cls-4" x="21.3" y="52.78" width="14.62" height="1.15"/></g></mask><linearGradient id="linear-gradient-5" x1="1030.3" y1="2246.31" x2="1040.29" y2="2246.31" xlink:href="#linear-gradient-4"/><filter id="luminosity-noclip-6" x="159.98" y="0" width="1.14" height="14.75" filterUnits="userSpaceOnUse" color-interpolation-filters="sRGB"><feFlood flood-color="#fff" result="bg"/><feBlend in="SourceGraphic" in2="bg"/></filter><mask id="mask-6" x="159.98" y="0" width="1.14" height="14.75" maskUnits="userSpaceOnUse"><g class="cls-5"><rect class="cls-6" x="159.98" width="1.14" height="14.75"/></g></mask><linearGradient id="linear-gradient-6" x1="1167.25" y1="2193.41" x2="1167.25" y2="2206.38" xlink:href="#linear-gradient-4"/></defs><g id="레이어_2" data-name="레이어 2"><g id="Layer_1" data-name="Layer 1"><path class="cls-7" d="M146.62,33.37a15.48,15.48,0,0,1,12.21,5.47L160,40.16V25.44l-.34-.19a26.78,26.78,0,0,0-13-3.35A27.13,27.13,0,0,0,127,29.54a25,25,0,0,0-8,19.09,25,25,0,0,0,8,19.09,27.73,27.73,0,0,0,19.59,7.56,26.76,26.76,0,0,0,13-3.31l.35-.19V57l-1.16,1.3a15.55,15.55,0,0,1-12.21,5.47,15,15,0,0,1-10.89-4.29,14.7,14.7,0,0,1-4.34-10.89,14.54,14.54,0,0,1,4.4-10.89A14.74,14.74,0,0,1,146.62,33.37Z"/><path class="cls-7" d="M87.13,21.9a27.13,27.13,0,0,0-19.59,7.64,25,25,0,0,0-8.05,19.09,25,25,0,0,0,8.05,19.09,27.71,27.71,0,0,0,19.59,7.56,26.76,26.76,0,0,0,13-3.31l.35-.19V57l-1.16,1.3a15.57,15.57,0,0,1-12.21,5.47,15,15,0,0,1-10.89-4.29A14.7,14.7,0,0,1,71.9,48.63a14.54,14.54,0,0,1,4.4-10.89,14.74,14.74,0,0,1,10.83-4.37,15.48,15.48,0,0,1,12.21,5.47l1.16,1.32V25.44l-.35-.19A26.74,26.74,0,0,0,87.13,21.9Z"/><path class="cls-7" d="M27.64,21.9A27.13,27.13,0,0,0,8.05,29.54,25,25,0,0,0,0,48.63,25,25,0,0,0,8.05,67.72a27.7,27.7,0,0,0,19.59,7.56,26.78,26.78,0,0,0,13-3.31l.35-.19V57l-1.16,1.3a15.57,15.57,0,0,1-12.21,5.47,15.07,15.07,0,0,1-10.9-4.29,14.73,14.73,0,0,1-4.33-10.89,14.54,14.54,0,0,1,4.4-10.89,14.74,14.74,0,0,1,10.83-4.37,15.48,15.48,0,0,1,12.21,5.47L41,40.16V25.44l-.35-.19A26.74,26.74,0,0,0,27.64,21.9Z"/><path class="cls-8" d="M111.26,48.6A23.08,23.08,0,0,0,104.13,32a25.35,25.35,0,0,0-17.24-7.13h0a.56.56,0,0,0-.57.58.57.57,0,0,0,.56.57,24.23,24.23,0,0,1,16.45,6.79,22,22,0,0,1,6.8,15.82A22.36,22.36,0,0,1,99.41,67.48l.25,1.19A23.53,23.53,0,0,0,111.26,48.6Z"/><g class="cls-9"><path class="cls-10" d="M86.35,71.22h0v1.15h0a25.58,25.58,0,0,0,13.31-3.7l-.25-1.19A24.47,24.47,0,0,1,86.35,71.22Z"/></g><path class="cls-8" d="M35.92,52.78v1.15h6.85L22.32,82.12a.6.6,0,0,0-.1.43.63.63,0,0,0,.23.38.6.6,0,0,0,.34.11h.09a.56.56,0,0,0,.37-.23L45,52.85l.06-.07Z"/><g class="cls-11"><rect class="cls-12" x="21.3" y="52.78" width="14.62" height="1.15"/></g><path class="cls-8" d="M160,75.45a.57.57,0,0,0,.57.57.58.58,0,0,0,.57-.57V14.75H160Z"/><g class="cls-13"><rect class="cls-14" x="159.98" width="1.14" height="14.75"/></g><path class="cls-7" d="M176,49.71a5.56,5.56,0,0,0,0,8,5.81,5.81,0,0,0,4.13,1.58,5.31,5.31,0,0,0,3.36-1.11v-2.5a4.62,4.62,0,0,1-3.36,1.44,3.45,3.45,0,0,1-2.45-1,3.32,3.32,0,0,1-1-2.44,3.25,3.25,0,0,1,1-2.44,3.33,3.33,0,0,1,2.43-1,4.59,4.59,0,0,1,3.36,1.45v-2.5a5.26,5.26,0,0,0-3.36-1.12A5.79,5.79,0,0,0,176,49.71Z"/><path class="cls-7" d="M190.61,48.11a5.69,5.69,0,0,0-4.1,1.63,5.55,5.55,0,0,0,0,8,6,6,0,0,0,8.2,0,5.34,5.34,0,0,0,1.68-4,5.27,5.27,0,0,0-1.7-4A5.63,5.63,0,0,0,190.61,48.11Zm2.39,8a3.19,3.19,0,0,1-2.39,1,3.29,3.29,0,0,1-2.41-1,3.53,3.53,0,0,1,0-4.88,3.38,3.38,0,0,1,4.82,0,3.5,3.5,0,0,1,0,4.86Z"/><path class="cls-7" d="M198,47.89V58.26a1.15,1.15,0,0,0,2.3,0V53.61l3.42,3.83,3.41-3.83V59.1h2.3V47.89l-5.71,6.23Z"/><path class="cls-7" d="M211.52,47.89V58.26a1.15,1.15,0,0,0,2.3,0V53.61l3.42,3.83,3.41-3.83V59.1H223V47.89l-5.71,6.23Z"/><path class="cls-7" d="M231.77,54.48c0,1.75-.73,2.62-2.2,2.62s-2.22-.87-2.22-2.62V49.17a1.19,1.19,0,0,0-1.2-1.19h0A1.19,1.19,0,0,0,225,49.17v5.55a4.33,4.33,0,0,0,1.3,3.39,4.81,4.81,0,0,0,3.31,1.16,4.71,4.71,0,0,0,3.29-1.18,4.31,4.31,0,0,0,1.3-3.37V48.28h-2.39Z"/><path class="cls-7" d="M244.61,48a1.18,1.18,0,0,0-1.18,1.18v5.27l-7.26-6.57V59.1h2.36V53l7.26,6.55V49.16A1.17,1.17,0,0,0,244.61,48Z"/><path class="cls-7" d="M248,58.21a1.2,1.2,0,1,0,2.39,0V48.28H248Z"/><path class="cls-7" d="M258.91,59.1h2.54l.83-1.72h4.52l.84,1.72h2.55l-5.64-11.44Zm4.26-3.76,1.37-2.84,1.38,2.84Z"/><path class="cls-7" d="M278.08,54.09a5.81,5.81,0,0,0-2.19-1.35l-.69-.27-.71-.28-.53-.26c-.42-.25-.56-.48-.56-.79,0-.5.56-.84,1.55-.84a4.31,4.31,0,0,1,2.81.91V48.84a5.7,5.7,0,0,0-2.9-.73,4.56,4.56,0,0,0-2.76.82,2.63,2.63,0,0,0-1.1,2.22c0,1.62,1.07,2.56,2.91,3.23a12.28,12.28,0,0,1,1.93.82,1,1,0,0,1,.5.84c0,.64-.7,1.07-1.9,1.07a5.35,5.35,0,0,1-3.65-1.3v2.48a7.28,7.28,0,0,0,3.76,1c2.72,0,4.18-1.32,4.18-3.23A2.82,2.82,0,0,0,278.08,54.09Z"/><path class="cls-7" d="M257,50.45h2.89V48.28H257v-2.8h-2.39v2.8h-2.94v2.17h2.94v9a1.2,1.2,0,0,0,2.39,0v-2.8h0Z"/><path class="cls-7" d="M179.3,43.19h-2.38V38.88a.68.68,0,0,0-1.36,0v5.54h3.74Z"/><path class="cls-7" d="M180,43.85a.66.66,0,0,0,.66.65.65.65,0,0,0,.65-.65V40H180Z"/><path class="cls-7" d="M180.62,39.61a.74.74,0,1,0-.74-.74A.73.73,0,0,0,180.62,39.61Z"/><path class="cls-7" d="M183.93,39.79c0-.38.18-.53.6-.53a1.68,1.68,0,0,1,.4,0V38.21a4.73,4.73,0,0,0-.53,0,1.85,1.85,0,0,0-1.22.33,1.65,1.65,0,0,0-.52,1.37V40h-.73v1.19h.73v2.69a.63.63,0,0,0,.63.63.64.64,0,0,0,.64-.63V41.18h.88V40h-.88Z"/><path class="cls-7" d="M187.5,44.53a3,3,0,0,0,1.64-.4V43a2.67,2.67,0,0,1-1.57.44c-.69,0-1.14-.34-1.17-.87h3.25a2.9,2.9,0,0,0,0-.43,2.22,2.22,0,0,0-.62-1.59,2.17,2.17,0,0,0-1.62-.65,2.31,2.31,0,0,0-1.69.65,2.18,2.18,0,0,0-.66,1.66v.05a2.21,2.21,0,0,0,.66,1.67A2.49,2.49,0,0,0,187.5,44.53Zm-.77-3.35a1.21,1.21,0,0,1,.71-.21.84.84,0,0,1,.92.73h-2A.68.68,0,0,1,186.73,41.18Z"/><path class="cls-7" d="M196.16,38.29H192v1.23h1.66v4.9h1.35v-4.9h1.11a.61.61,0,0,0,.61-.61A.61.61,0,0,0,196.16,38.29Z"/><path class="cls-7" d="M198.2,43.85V42.26a1.08,1.08,0,0,1,1.19-1.16,2.12,2.12,0,0,1,.44,0V39.92l-.35,0a1.32,1.32,0,0,0-1.28.71V40h-1.31v3.86a.66.66,0,0,0,1.31,0Z"/><path class="cls-7" d="M202.27,44.5a1.34,1.34,0,0,0,1.32-.66h0a.65.65,0,1,0,1.3,0V40h-1.3v.58a1.33,1.33,0,0,0-1.32-.66,2.09,2.09,0,0,0-1.58.67,2.29,2.29,0,0,0-.62,1.62,2.36,2.36,0,0,0,.62,1.64A2.11,2.11,0,0,0,202.27,44.5Zm-.56-3.08a1,1,0,0,1,.79-.32,1.1,1.1,0,0,1,.82.32,1,1,0,0,1,.34.78,1,1,0,0,1-.34.79,1.14,1.14,0,0,1-.82.32,1.09,1.09,0,0,1-.79-.32,1.07,1.07,0,0,1-.33-.79A1.05,1.05,0,0,1,201.71,41.42Z"/><path class="cls-7" d="M208.36,39.89a1.41,1.41,0,0,0-1.29.65V40h-1.31v4.43h1.31V41.93a.84.84,0,0,1,.85-.88.83.83,0,0,1,.83.84v2a.66.66,0,0,0,1.31,0V41.73A1.62,1.62,0,0,0,208.36,39.89Z"/><path class="cls-7" d="M214.39,43.09a1.08,1.08,0,0,0-.44-.94,2.93,2.93,0,0,0-1-.45c-.49-.14-.89-.19-.89-.45s.19-.26.56-.26a2.6,2.6,0,0,1,1.27.32V40.16a2.67,2.67,0,0,0-1.31-.3,2,2,0,0,0-1.23.37,1.16,1.16,0,0,0-.51,1,1.26,1.26,0,0,0,.77,1.2,4.65,4.65,0,0,0,.66.25c.28.08.49.15.64.21s.21.13.21.22-.21.3-.65.3a2.9,2.9,0,0,1-1.72-.53v1.22a3.67,3.67,0,0,0,1.69.42C213.75,44.53,214.39,44,214.39,43.09Z"/><path class="cls-7" d="M215.38,43.87a.63.63,0,1,0,1.26,0V41.18h.89V40h-.89v-.2c0-.38.18-.53.61-.53a1.65,1.65,0,0,1,.39,0V38.21a4.55,4.55,0,0,0-.53,0,1.87,1.87,0,0,0-1.22.33,1.64,1.64,0,0,0-.51,1.37V40h-.73v1.19h.73Z"/><path class="cls-7" d="M220.27,44.55a2.47,2.47,0,0,0,1.74-.68,2.29,2.29,0,0,0,0-3.33,2.58,2.58,0,0,0-3.49,0,2.31,2.31,0,0,0,0,3.33A2.46,2.46,0,0,0,220.27,44.55Zm-.82-3.16a1.09,1.09,0,0,1,.82-.35,1.16,1.16,0,0,1,1.15,1.16,1.15,1.15,0,0,1-.33.83,1.12,1.12,0,0,1-.82.33,1.11,1.11,0,0,1-.82-.33,1.13,1.13,0,0,1-.33-.83A1.1,1.1,0,0,1,219.45,41.39Z"/><path class="cls-7" d="M225.91,41.1a2,2,0,0,1,.44,0V39.92l-.34,0a1.33,1.33,0,0,0-1.29.71V40h-1.31v3.86a.66.66,0,0,0,.66.65.65.65,0,0,0,.65-.65V42.26A1.08,1.08,0,0,1,225.91,41.1Z"/><path class="cls-7" d="M227.66,44.5a.66.66,0,0,0,.66-.65V41.93c0-.52.3-.88.73-.88s.65.32.65.84v2.53H231V41.93a.79.79,0,0,1,.74-.88c.42,0,.66.32.66.84v2.53h1.31V41.73c0-1.15-.56-1.84-1.57-1.84a1.52,1.52,0,0,0-1.48.71,1.19,1.19,0,0,0-1.2-.71,1.21,1.21,0,0,0-1.15.65V40H227v3.86A.65.65,0,0,0,227.66,44.5Z"/><path class="cls-7" d="M235.2,38.13a.74.74,0,1,0,.75.74A.73.73,0,0,0,235.2,38.13Z"/><path class="cls-7" d="M234.55,43.85a.66.66,0,0,0,.66.65.65.65,0,0,0,.65-.65V40h-1.31Z"/><path class="cls-7" d="M238.05,41.93a.84.84,0,0,1,.85-.88.83.83,0,0,1,.83.84v2a.65.65,0,0,0,.65.65.66.66,0,0,0,.66-.65V41.73a1.62,1.62,0,0,0-1.7-1.84,1.4,1.4,0,0,0-1.29.65V40h-1.31v4.43h1.31Z"/><path class="cls-7" d="M245.19,40.57a1.32,1.32,0,0,0-1.32-.66,2.06,2.06,0,0,0-1.57.67,2.29,2.29,0,0,0-.62,1.62,2.23,2.23,0,0,0,.62,1.6,2.11,2.11,0,0,0,1.57.64,1.61,1.61,0,0,0,1.36-.53v.18a1.07,1.07,0,0,1-.39.95,2,2,0,0,1-1,.21,2.66,2.66,0,0,1-1.76-.54v1.17a3.9,3.9,0,0,0,2,.47,2.74,2.74,0,0,0,1.64-.47,1.49,1.49,0,0,0,.63-.85,4.84,4.84,0,0,0,.14-1.35V40h-1.31ZM244.93,43a1.13,1.13,0,0,1-.82.31,1.12,1.12,0,0,1-.8-.31,1,1,0,0,1-.32-.78,1,1,0,0,1,.32-.78,1.09,1.09,0,0,1,.8-.32,1.1,1.1,0,0,1,.82.32,1,1,0,0,1,.34.78A1,1,0,0,1,244.93,43Z"/></g></g></svg>